<?xml version="1.0" encoding="UTF-8"?>
<!DOCTYPE svg PUBLIC "-//W3C//DTD SVG 1.1//EN" "http://www.w3.org/Graphics/SVG/1.1/DTD/svg11.dtd">
<!-- Creator: CorelDRAW 2019 (64-Bit) -->
<svg xmlns="http://www.w3.org/2000/svg" xml:space="preserve" width="10.6667in" height="2.08333in" version="1.1" style="shape-rendering:geometricPrecision; text-rendering:geometricPrecision; image-rendering:optimizeQuality; fill-rule:evenodd; clip-rule:evenodd"
viewBox="0 0 10666.66 2083.33"
 xmlns:xlink="http://www.w3.org/1999/xlink"
 xmlns:xodm="http://www.corel.com/coreldraw/odm/2003">
 <defs>
  <style type="text/css">
   <![CDATA[
    .fil0 {fill:white}
   ]]>
  </style>
 </defs>
 <g id="Layer_x0020_1">
  <metadata id="CorelCorpID_0Corel-Layer"/>
  <path class="fil0" d="M239.12 2043.74l0 -1994.32 833.83 0c139.44,0 259.79,25.79 361.05,77.36 116.52,59.23 209.15,143.73 277.92,253.59 68.78,109.85 103.15,230.68 103.15,362.46 0,131.82 -33.91,253.11 -101.69,363.92 -67.83,110.8 -160.03,195.79 -276.55,255.02 -99.31,51.57 -220.61,77.36 -363.88,77.36l-312.34 0 0 604.62 -521.49 0zm82.79 -604.62l357.02 0 0 520.63 -357.02 0 0 -520.63zm796.33 -1309.98l-330.46 0 0 96.49 0 1034.39 0 96.48 330.46 0c338.91,0 613.68,-274.73 613.68,-613.68 0,-338.91 -274.77,-613.68 -613.68,-613.68zm1186.81 -79.73l1452.76 0 0 504.28 -931.22 0 0 252.17 773.62 0 0 478.52 -773.62 0 0 255.05 931.22 0 0 504.3 -1452.76 0 0 -1994.32zm3662 1994.32l-1533.01 0 0 -1994.32 776.54 0c166.2,0 301.81,29.6 406.91,88.83 103.15,57.29 183.35,135.61 240.68,234.95 57.31,99.31 85.96,209.18 85.96,329.53 0,149 -45.85,282.24 -137.54,399.73 -91.71,117.46 -207.29,195.31 -346.71,233.5l507.17 707.78zm-1352.48 -1888.31l779.41 1088.85c127.97,-26.73 234,-90.73 318.06,-191.99 84.04,-101.22 126.07,-217.74 126.07,-349.56 0,-105.09 -25.79,-200.59 -77.36,-286.56 -51.57,-85.96 -124.16,-151.85 -217.78,-197.71 -84.04,-41.99 -193.88,-63.02 -329.5,-63.02l-598.9 0zm-74.49 1782.28l1226.38 0 -418.34 -581.68 -88.83 2.89 -719.21 0 0 578.8zm3593.22 -401.16l0 507.19 -1518.65 0 0 -1994.32 106 0 0 1487.13 1412.66 0zm2189.17 507.19l-1879.69 0 939.83 -2037.31 939.86 2037.31z"/>
  <polygon class="fil0" points="10322.45,2043.72 8411.76,2043.72 8411.76,1258.07 9382.6,6.43 10322.45,1258.07 "/>
  <polygon class="fil0" points="10030.08,1048.91 10030.08,487.85 9879.4,487.85 9879.4,858.1 "/>
 </g>
</svg>
